<?xml version="1.0" encoding="UTF-8" standalone="no"?>
<!-- Created with Inkscape (http://www.inkscape.org/) -->

<svg
   xmlns:dc="http://purl.org/dc/elements/1.1/"
   xmlns:cc="http://creativecommons.org/ns#"
   xmlns:rdf="http://www.w3.org/1999/02/22-rdf-syntax-ns#"
   xmlns:svg="http://www.w3.org/2000/svg"
   xmlns="http://www.w3.org/2000/svg"
   xmlns:sodipodi="http://sodipodi.sourceforge.net/DTD/sodipodi-0.dtd"
   xmlns:inkscape="http://www.inkscape.org/namespaces/inkscape"
   version="1.1"
   id="svg5074"
   width="20.800001"
   height="42.399998"
   viewBox="0 0 20.800001 42.399997"
   sodipodi:docname="buoyant2.svg"
   inkscape:version="0.92.3 (2405546, 2018-03-11)">
  <metadata
     id="metadata5080">
    <rdf:RDF>
      <cc:Work
         rdf:about="">
        <dc:format>image/svg+xml</dc:format>
        <dc:type
           rdf:resource="http://purl.org/dc/dcmitype/StillImage" />
        <dc:title></dc:title>
      </cc:Work>
    </rdf:RDF>
  </metadata>
  <defs
     id="defs5078" />
  <sodipodi:namedview
     pagecolor="#ffffff"
     bordercolor="#666666"
     borderopacity="1"
     objecttolerance="10"
     gridtolerance="10"
     guidetolerance="10"
     inkscape:pageopacity="0"
     inkscape:pageshadow="2"
     inkscape:window-width="1920"
     inkscape:window-height="1001"
     id="namedview5076"
     showgrid="false"
     fit-margin-top="0"
     fit-margin-left="0"
     fit-margin-right="0"
     fit-margin-bottom="0"
     inkscape:zoom="7.2130354"
     inkscape:cx="10.400001"
     inkscape:cy="21.599999"
     inkscape:window-x="1911"
     inkscape:window-y="-9"
     inkscape:window-maximized="1"
     inkscape:current-layer="svg5074" />
  <path
     style="fill:#000000;stroke-width:0.80000001"
     d="m 5.6,39.999998 c -1.233065,-1.32 -2.9975,-2.4 -3.920968,-2.4 -1.145698,0 -1.679032,-0.508229 -1.679032,-1.6 0,-1.231295 0.533334,-1.6 2.314409,-1.6 1.372446,0 2.512045,-0.515029 2.8,-1.265429 C 5.381484,32.438582 5.6,24.698582 5.6,15.93457 V 0 h 4.800001 4.8 v 15.93457 c 0,8.764012 0.218516,16.504012 0.485591,17.199999 0.287955,0.7504 1.427554,1.265429 2.8,1.265429 1.781075,0 2.314409,0.368705 2.314409,1.6 0,1.091771 -0.533334,1.6 -1.679032,1.6 -0.923468,0 -2.687903,1.08 -3.920968,2.4 -1.586978,1.698865 -2.989248,2.4 -4.8,2.4 -1.810753,0 -3.213023,-0.701135 -4.800001,-2.4 z m 8.000001,-4.012905 c 0,-1.849775 -0.432375,-2.465131 -2.010389,-2.861186 C 9.087796,32.497991 7.2,33.959259 7.2,36.523734 c 0,1.264502 0.61934,2.161688 1.8,2.607511 2.625646,0.991455 4.600001,-0.358039 4.600001,-3.144152 z m -0.8,-19.587094 V 2.3999999 h -2.4 H 8 v 13.9999991 14 h 2.400001 2.4 z"
     id="path5627"
     inkscape:connector-curvature="0" />
</svg>
